<svg width="34" height="34" viewBox="0 0 34 34" fill="none" xmlns="http://www.w3.org/2000/svg">
<circle cx="17" cy="17" r="17" fill="white"/>
<path fill-rule="evenodd" clip-rule="evenodd" d="M28.8238 27.7813L28.8093 27.797C25.7838 31.1056 21.4811 33.0023 16.9998 33.0023C15.9858 33.0023 14.9717 32.9069 13.9854 32.7184C13.3064 32.5889 12.8606 31.9328 12.9902 31.2538C13.1197 30.5748 13.7757 30.1302 14.4547 30.2585C15.2868 30.4175 16.143 30.4982 16.9998 30.4982C20.7857 30.4982 24.4215 28.8929 26.9743 26.0938L26.9884 26.0785C29.2505 23.5906 30.4962 20.3678 30.4962 17.0007C30.4962 9.55865 24.442 3.50405 16.9997 3.50405C15.4457 3.50405 13.9217 3.76553 12.4707 4.28259C11.8194 4.51521 11.1033 4.17364 10.8713 3.5229C10.6393 2.87156 10.9796 2.15544 11.6309 1.92341C13.3516 1.31036 15.1577 1 16.9997 1C25.8229 1 33.0001 8.17824 33.0001 17.0007C33.0001 21.0006 31.5173 24.8291 28.8238 27.7813ZM5.68806 28.3175C5.93245 28.5619 6.2528 28.6844 6.57315 28.6844C6.8935 28.6844 7.21443 28.5619 7.45882 28.3175C7.94759 27.8287 7.947 27.036 7.45823 26.5472C4.90839 23.9978 3.50391 20.6075 3.50391 17.001C3.50391 13.9162 4.57096 10.901 6.50778 8.51063C6.94296 7.97354 6.86052 7.18499 6.32346 6.74978C5.78581 6.31517 4.99848 6.39702 4.56271 6.93411C2.2655 9.76913 1 13.3444 1 17.001C1 21.2765 2.66476 25.2958 5.68806 28.3175ZM5.31944 17.0013C5.31944 23.4422 10.5587 28.6824 16.9998 28.6824C23.441 28.6824 28.6808 23.4422 28.6808 17.0013C28.6808 14.6669 27.9942 12.4131 26.6951 10.4838C26.3088 9.91021 25.5303 9.75828 24.9573 10.144C24.3838 10.5309 24.2318 11.3089 24.6182 11.8825C25.6381 13.3966 26.1769 15.1668 26.1769 17.0013C26.1769 22.0612 22.0601 26.1783 16.9998 26.1783C11.9396 26.1783 7.82335 22.0612 7.82335 17.0013C7.82335 13.5267 9.74898 10.3896 12.8494 8.81366C13.466 8.50036 13.7115 7.74655 13.3988 7.13055C13.0862 6.51455 12.3336 6.26721 11.7152 6.5811C7.77035 8.58575 5.31944 12.5786 5.31944 17.0013ZM22.8927 19.116C22.8391 19.116 22.7855 19.1131 22.7319 19.106C22.0459 19.0177 21.5612 18.3905 21.6496 17.7044C21.8115 16.4406 21.477 15.1862 20.7062 14.1721C20.2127 13.5237 19.562 13.0084 18.8235 12.6816C18.1917 12.4018 17.9055 11.6628 18.1852 11.0303C18.4649 10.3978 19.2028 10.1122 19.837 10.3919C20.9606 10.8889 21.9505 11.6722 22.6995 12.6563C23.8702 14.1974 24.379 16.1032 24.1323 18.0236C24.0516 18.6555 23.5128 19.116 22.8927 19.116ZM15.879 24.3463C15.9367 24.354 15.9933 24.3581 16.0498 24.3581C16.6658 24.3581 17.2028 23.9029 17.2888 23.2751C17.3818 22.5902 16.9019 21.9589 16.217 21.8653C14.9415 21.6915 13.8097 21.0308 13.0306 20.0061C11.423 17.8901 11.8358 14.8596 13.9516 13.2513C14.3061 12.9815 14.6948 12.763 15.1058 12.6005C15.7495 12.3467 16.0651 11.62 15.8119 10.9769C15.5587 10.3338 14.8332 10.0181 14.1884 10.2708C13.563 10.5175 12.9735 10.8497 12.4364 11.2578C9.22117 13.7018 8.59402 18.3059 11.0373 21.5213C12.2215 23.079 13.941 24.0819 15.879 24.3463Z" fill="#3CAF7A"/>
<path fill-rule="evenodd" clip-rule="evenodd" d="M14.9217 3.63991C15.6089 3.63991 16.166 3.08221 16.166 2.39495C16.166 1.70769 15.6089 1.14999 14.9217 1.14999C14.2339 1.14999 13.6762 1.70769 13.6762 2.39495C13.6762 3.08221 14.2339 3.63991 14.9217 3.63991ZM5.5474 8.9427C6.23462 8.9427 6.7917 8.38501 6.7917 7.69775C6.7917 7.01049 6.23462 6.45279 5.5474 6.45279C4.85959 6.45279 4.30193 7.01049 4.30193 7.69775C4.30193 8.38501 4.85959 8.9427 5.5474 8.9427ZM26.8877 11.2034C26.8877 11.8906 26.3306 12.4483 25.6434 12.4483C24.9556 12.4483 24.3979 11.8906 24.3979 11.2034C24.3979 10.5161 24.9556 9.9584 25.6434 9.9584C26.3306 9.9584 26.8877 10.5161 26.8877 11.2034ZM15.9136 11.4285C15.9136 12.1157 15.3559 12.6734 14.6687 12.6734C13.9814 12.6734 13.4238 12.1157 13.4238 11.4285C13.4238 10.7412 13.9814 10.1835 14.6687 10.1835C15.3559 10.1835 15.9136 10.7412 15.9136 11.4285ZM15.4575 31.4478C15.4575 32.135 14.9004 32.6927 14.2126 32.6927C13.5254 32.6927 12.9677 32.135 12.9677 31.4478C12.9677 30.7605 13.5254 30.2028 14.2126 30.2028C14.9004 30.2028 15.4575 30.7605 15.4575 31.4478Z" fill="#024DA1"/>
<path fill-rule="evenodd" clip-rule="evenodd" d="M30.3964 24.3507C31.0836 24.3507 31.6407 23.793 31.6407 23.1058C31.6407 22.4185 31.0836 21.8608 30.3964 21.8608C29.7086 21.8608 29.1509 22.4185 29.1509 23.1058C29.1509 23.793 29.7086 24.3507 30.3964 24.3507ZM11.6087 27.1711C12.2959 27.1711 12.853 26.6134 12.853 25.9261C12.853 25.2389 12.2959 24.6812 11.6087 24.6812C10.9208 24.6812 10.3632 25.2389 10.3632 25.9261C10.3632 26.6134 10.9208 27.1711 11.6087 27.1711Z" fill="#FEFEFE"/>
</svg>
